<svg id="Layer_1" data-name="Layer 1" xmlns="http://www.w3.org/2000/svg" width="1727.47" height="731.39" viewBox="0 0 1727.47 731.39"><defs><style>.cls-1{fill:#639;}</style></defs><path d="M192.24,180.82v6.52h-34l83.82,245.42H243L291.89,294,255.57,187.34H230.42v-6.52H369.66v6.52H326.35l84.29,245.88h.93l86.16-245.88H457.68v-6.52h85.69v6.52H505.64L386,525h-13.5L296.08,304.69h-.93L216.92,525H203.41L87.92,187.34H49.73v-6.52Z" transform="translate(-49.73 -174.19)"/><path d="M637.17,298.11v172h27.77v5.8H558.83v-5.8H586.6V303.92H558.83v-5.81Zm-46-109.83a29.31,29.31,0,1,1,41.45,41.45,29.31,29.31,0,1,1-41.45-41.45Z" transform="translate(-49.73 -174.19)"/><path d="M716.46,470.12V303.92H689.11v-5.81H766.2v41.45H767q1.65-3.72,5.8-11.4a61.27,61.27,0,0,1,12-15.12A72.36,72.36,0,0,1,805.16,300q12.44-5.6,31.09-5.59,27.35,0,42.48,15.74t15.13,43.11V470.12h27.77v5.8h-104v-5.8h25.7v-131q0-17.41-7-25.49t-19.07-8.08a40.73,40.73,0,0,0-19.07,4.76,45.9,45.9,0,0,0-16,14.3,78.09,78.09,0,0,0-11,23.63Q767,362.36,767,381.42v88.7h26.11v5.8h-104v-5.8Z" transform="translate(-49.73 -174.19)"/><path d="M971.77,298.11q0-13.67.42-28.18a206.23,206.23,0,0,1,2.69-28.18,122.07,122.07,0,0,1,7.25-25.91,66.38,66.38,0,0,1,14.09-21.55,63.65,63.65,0,0,1,23.22-14.71q14.08-5.39,34.81-5.39a76.62,76.62,0,0,1,18.65,2.28,55.74,55.74,0,0,1,16.58,7,37.06,37.06,0,0,1,12,12.44q4.56,7.68,4.56,18.44a21.36,21.36,0,0,1-7,16.17,23.4,23.4,0,0,1-16.58,6.63q-22,0-22-21.14a25.48,25.48,0,0,1,.62-4.35c.41-2.07.83-4.28,1.24-6.63s.76-4.49,1-6.43a34.56,34.56,0,0,0,.41-4.14c0-5-1.8-8.63-5.39-11A22.25,22.25,0,0,0,1046,180q-8.7,0-13.68,4.35a23.64,23.64,0,0,0-7,11.82,75.91,75.91,0,0,0-2.49,17.2q-.42,9.73-.41,20.51v64.24h34.4v5.81h-34.4v166.2h31.91v5.8H944.42v-5.8h27.35V303.92H944.42v-5.81Z" transform="translate(-49.73 -174.19)"/><path d="M1192.68,298.11v172h27.77v5.8H1114.34v-5.8h27.77V303.92h-27.77v-5.81Zm-46-109.83a29.31,29.31,0,1,1,41.45,41.45,29.31,29.31,0,1,1-41.45-41.45Z" transform="translate(-49.73 -174.19)"/><path d="M1293.53,390.54q0,14.93,1.24,30A84.65,84.65,0,0,0,1301.4,448a50.2,50.2,0,0,0,15.75,20.1q10.35,7.88,29,7.87,16.58,0,28-6.22a69.46,69.46,0,0,0,18.65-14.29,62.71,62.71,0,0,0,10.78-16q3.51-7.87,3.94-11.61l5.8,2.08a73.08,73.08,0,0,1-7,16.78,62.93,62.93,0,0,1-13.68,16.58A74.07,74.07,0,0,1,1371,476.13q-12.85,5.17-31.08,5.18a122.77,122.77,0,0,1-40.21-6.42,95.81,95.81,0,0,1-32.53-18.66,85.58,85.58,0,0,1-21.76-29.84q-7.87-17.61-7.88-40a85.89,85.89,0,0,1,7.46-34.82,98,98,0,0,1,20.52-30.05,104.61,104.61,0,0,1,30.67-21.14,90,90,0,0,1,37.93-8.08,96.37,96.37,0,0,1,29,4.56A77.51,77.51,0,0,1,1389.27,311a73.39,73.39,0,0,1,19.06,24.66q7.47,15.13,7.46,36.27H1293.53Zm66.31-52.22q0-4.56-.41-11.19a46.13,46.13,0,0,0-2.9-13.26,26.12,26.12,0,0,0-8.09-11.2q-5.6-4.55-15.54-4.56-14.1,0-21.76,6.64a40,40,0,0,0-11.4,16.78,84.89,84.89,0,0,0-4.76,22q-1,11.81-1.45,22.59h66.31Z" transform="translate(-49.73 -174.19)"/><path d="M1515.27,177.09v293H1543v5.8H1436.93v-5.8h27.77V182.89h-27.77v-5.8Z" transform="translate(-49.73 -174.19)"/><path d="M1777.2,470.12v5.8h-77.09V445.25h-.82q-6.64,17.42-18.45,26.73t-30.46,9.33a85,85,0,0,1-36.89-7.87,89.65,89.65,0,0,1-28.39-20.94A98.14,98.14,0,0,1,1560,386.81a104.28,104.28,0,0,1,5.19-31.08,96.22,96.22,0,0,1,16.16-30.67,89.33,89.33,0,0,1,28-23.42q17-9.33,41-9.33,18.64,0,30.25,8.71t17.83,26.11h.83V182.89H1671.1v-5.8h78.75v293ZM1697.84,357.8a124.61,124.61,0,0,0-6-29,54.15,54.15,0,0,0-13.67-22q-9.12-8.7-24.46-8.71-10.37,0-17.61,4.56t-11.81,14.92q-4.57,10.37-6.43,27.57a400.64,400.64,0,0,0-1.86,42.07q0,20.31,1,36.68a124.2,124.2,0,0,0,4.56,28q3.53,11.61,10.36,17.82t18.45,6.22q17.4,0,27.15-8.91a56.25,56.25,0,0,0,14.71-22.38,103,103,0,0,0,6-29q1-15.54,1-28.39Q1699.29,373.55,1697.84,357.8Z" transform="translate(-49.73 -174.19)"/><text x="-49.73" y="-174.19"/><path class="cls-1" d="M686.76,651.27V596.71H571.46v85.42h93.08v62.72H571.46v97.52h115.3V787.31h71.36V905.58H430V842.37h44.94V596.71H430V533.5H758.12V651.27Z" transform="translate(-49.73 -174.19)"/><path class="cls-1" d="M982.28,579.63l58.18,183.78h33.24V810.7H936.84V763.41h35.65l-13.3-47.28H887l-14.78,47.28h37.13V810.7h-123V763.41h34.35l54.12-183.78H837.65V532.35h182.12v47.28Zm-58,11.27-24.94,84h48.4Z" transform="translate(-49.73 -174.19)"/><path class="cls-1" d="M1264.61,644.28V579.63h-43.22V763.41H1263V810.7H1106.88V763.41h42.29V579.63h-42.29v64.65h-47.29V532.35h251.94V644.28Z" transform="translate(-49.73 -174.19)"/><path class="cls-1" d="M1458.52,555.44V532.35h47.29v84.23h-47.29q-3-20.33-13.2-30.57t-26.51-10.25a30.47,30.47,0,0,0-19.58,6.46q-8.13,6.46-8.13,16.25a22.81,22.81,0,0,0,5.18,15,43.52,43.52,0,0,0,13.29,10.62q8.13,4.34,24.39,11.54l11.26,4.8q36.75,15.89,55.51,37.31t18.74,53.57q0,38.24-22,60.49T1438.39,814q-36.21,0-56.34-27.15V810.7h-47.28V716.13h47.28q1.48,24.57,12.66,37.4t30.19,12.84a29.41,29.41,0,0,0,21.52-8.68,28.54,28.54,0,0,0,8.78-21.06q0-12.55-10.07-23t-34.26-21q-41.19-18.09-59.75-39t-18.57-48a78.23,78.23,0,0,1,9.79-38.79,72,72,0,0,1,27.06-27.61A73.33,73.33,0,0,1,1407,529.21a65.18,65.18,0,0,1,29.55,6.65A56.75,56.75,0,0,1,1458.52,555.44Z" transform="translate(-49.73 -174.19)"/></svg>